<?xml version="1.0" encoding="utf-8"?>
<!-- Generator: Adobe Illustrator 21.0.2, SVG Export Plug-In . SVG Version: 6.00 Build 0)  -->
<svg version="1.1" xmlns="http://www.w3.org/2000/svg" xmlns:xlink="http://www.w3.org/1999/xlink" x="0px" y="0px"
	 viewBox="0 0 1369.9 815.5" style="enable-background:new 0 0 1369.9 815.5;" xml:space="preserve">
<style type="text/css">
	.st0{fill:none;}
	.st1{fill:#CCCCCC;}
	.st2{fill:#808080;}
	.st3{fill:#4D4D4D;}
	.st4{fill:#CC9933;}
	.st5{display:none;}
	.st6{display:inline;fill:url(#New_Pattern_32);}
	.st7{fill:#84B8E3;}
	.st8{fill:#FFFFFF;}
</style>
<pattern  x="-3110.5" y="-3463.8" width="1122" height="1122" patternUnits="userSpaceOnUse" id="New_Pattern_32" viewBox="233.3 -1279.2 1122 1122" style="overflow:visible;">
	<g>
		<rect x="233.3" y="-1279.2" class="st0" width="1122" height="1122"/>
		<g>
			<path class="st1" d="M1201.3-1.8l227-131.8c3.9-2.3,6.4-6.4,6.7-10.9c0.3-4.5-1.7-8.9-5.3-11.6l-174.2-132.8
				c-3.7-2.8-8.6-3.6-13-1.9c-4.4,1.7-7.6,5.5-8.5,10l-52.8,264.6c-1,5.2,1.1,10.6,5.4,13.7c2.4,1.7,5.1,2.5,7.9,2.5
				C1196.8,0,1199.2-0.6,1201.3-1.8z M1397.1-146.9L1213.7-40.4l42.7-213.8L1397.1-146.9z"/>
			<path class="st2" d="M981.7-155L855.1-276.4l-20.2,21.1l126.7,121.4L981.7-155z M855.3-264.6l114.6,109.9l-8.7,9L846.6-255.6
				L855.3-264.6z"/>
			<path class="st3" d="M424.4-288.7c0.5-3.5,2.4-6.8,5.6-9c21-14.4,46.4-19.7,71.4-15c25,4.7,46.7,18.9,61.1,39.9
				c29.7,43.4,18.5,102.9-24.9,132.6c-5.9,4.1-14,2.5-18.1-3.4c-4.1-5.9-2.5-14,3.4-18.1c15.3-10.5,25.6-26.2,29-44.5
				c3.4-18.2-0.4-36.7-10.9-52c-10.5-15.3-26.2-25.6-44.5-29c-18.2-3.4-36.7,0.4-52,10.9c-5.9,4.1-14,2.5-18.1-3.4
				C424.7-282.4,424-285.6,424.4-288.7z"/>
		</g>
		<g>
			<path class="st1" d="M79.3-1.8l227-131.8c3.9-2.3,6.4-6.4,6.7-10.9c0.3-4.5-1.7-8.9-5.3-11.6L133.5-288.9
				c-3.7-2.8-8.6-3.6-13-1.9c-4.4,1.7-7.6,5.5-8.5,10L59.2-16.2c-1,5.2,1.1,10.6,5.4,13.7C66.9-0.9,69.7,0,72.5,0
				C74.8,0,77.2-0.6,79.3-1.8z M275.1-146.9L91.7-40.4l42.7-213.8L275.1-146.9z"/>
		</g>
		<g>
			<path class="st4" d="M1400.1-511.6c-17.6,0-34.3-7.6-45.8-20.8c-7.8-8.9-19-14-30.8-14c-11.8,0-23,5.1-30.8,14
				c-11.6,13.2-28.3,20.8-45.8,20.8c-17.6,0-34.3-7.6-45.8-20.8c-7.8-8.9-19-14-30.8-14c-11.8,0-23,5.1-30.8,14
				c-3.6,4.2-10,4.6-14.1,0.9c-4.2-3.6-4.6-10-0.9-14.1c11.6-13.2,28.3-20.8,45.8-20.8c17.6,0,34.3,7.6,45.8,20.8
				c7.8,8.9,19,14,30.8,14c11.8,0,23-5.1,30.8-14c11.6-13.2,28.3-20.8,45.8-20.8c17.6,0,34.3,7.6,45.8,20.8c7.8,8.9,19,14,30.8,14
				c11.8,0,23-5.1,30.8-14c11.6-13.2,28.3-20.8,45.8-20.8c17.6,0,34.3,7.6,45.8,20.8c3.6,4.2,3.2,10.5-0.9,14.1
				c-4.2,3.6-10.5,3.2-14.1-0.9c-7.8-8.9-19-14-30.8-14c-11.8,0-23,5.1-30.8,14C1434.4-519.1,1417.7-511.6,1400.1-511.6z"/>
			<path class="st4" d="M1400.1-456.8c-17.6,0-34.3-7.6-45.8-20.8c-7.8-8.9-19-14-30.8-14c-11.8,0-23,5.1-30.8,14
				c-11.6,13.2-28.3,20.8-45.8,20.8c-17.6,0-34.3-7.6-45.8-20.8c-7.8-8.9-19-14-30.8-14c-11.8,0-23,5.1-30.8,14
				c-3.6,4.2-10,4.6-14.1,0.9c-4.2-3.6-4.6-10-0.9-14.1c11.6-13.2,28.3-20.8,45.8-20.8c17.6,0,34.3,7.6,45.8,20.8
				c7.8,8.9,19,14,30.8,14c11.8,0,23-5.1,30.8-14c11.6-13.2,28.3-20.8,45.8-20.8c17.6,0,34.3,7.6,45.8,20.8c7.8,8.9,19,14,30.8,14
				c11.8,0,23-5.1,30.8-14c11.6-13.2,28.3-20.8,45.8-20.8c17.6,0,34.3,7.6,45.8,20.8c3.6,4.2,3.2,10.5-0.9,14.1
				c-4.2,3.6-10.5,3.2-14.1-0.9c-7.8-8.9-19-14-30.8-14c-11.8,0-23,5.1-30.8,14C1434.4-464.4,1417.7-456.8,1400.1-456.8z"/>
			<path class="st4" d="M1400.1-402.1c-17.6,0-34.3-7.6-45.8-20.8c-7.8-8.9-19-14-30.8-14c-11.8,0-23,5.1-30.8,14
				c-11.6,13.2-28.3,20.8-45.8,20.8c-17.6,0-34.3-7.6-45.8-20.8c-7.8-8.9-19-14-30.8-14c-11.8,0-23,5.1-30.8,14
				c-3.6,4.2-10,4.6-14.1,0.9c-4.2-3.6-4.6-10-0.9-14.1c11.6-13.2,28.3-20.8,45.8-20.8c17.6,0,34.3,7.6,45.8,20.8
				c7.8,8.9,19,14,30.8,14c11.8,0,23-5.1,30.8-14c11.6-13.2,28.3-20.8,45.8-20.8c17.6,0,34.3,7.6,45.8,20.8c7.8,8.9,19,14,30.8,14
				c11.8,0,23-5.1,30.8-14c11.6-13.2,28.3-20.8,45.8-20.8c17.6,0,34.3,7.6,45.8,20.8c3.6,4.2,3.2,10.5-0.9,14.1
				c-4.2,3.6-10.5,3.2-14.1-0.9c-7.8-8.9-19-14-30.8-14c-11.8,0-23,5.1-30.8,14C1434.4-409.6,1417.7-402.1,1400.1-402.1z"/>
		</g>
		<g>
			<polygon class="st2" points="466.6,-818.6 358.8,-777.3 435.4,-903.9 			"/>
			<path class="st1" d="M1201.3-1123.8l227-131.8c3.9-2.3,6.4-6.4,6.7-10.9c0.3-4.5-1.7-8.9-5.3-11.6l-174.2-132.8
				c-3.7-2.8-8.6-3.6-13-1.9c-4.4,1.7-7.6,5.4-8.5,10l-52.8,264.6c-1,5.2,1.1,10.6,5.4,13.7c2.4,1.7,5.1,2.5,7.9,2.5
				C1196.8-1122,1199.2-1122.6,1201.3-1123.8z M1397.1-1268.9l-183.4,106.5l42.7-213.8L1397.1-1268.9z"/>
			<path class="st1" d="M1201.3-1.8l227-131.8c3.9-2.3,6.4-6.4,6.7-10.9c0.3-4.5-1.7-8.9-5.3-11.6l-174.2-132.8
				c-3.7-2.8-8.6-3.6-13-1.9c-4.4,1.7-7.6,5.5-8.5,10l-52.8,264.6c-1,5.2,1.1,10.6,5.4,13.7c2.4,1.7,5.1,2.5,7.9,2.5
				C1196.8,0,1199.2-0.6,1201.3-1.8z M1397.1-146.9L1213.7-40.4l42.7-213.8L1397.1-146.9z"/>
			<path class="st4" d="M1372.1-993.9l43-43c1.7-1.7,2.6-3.9,2.6-6.3c0-2.4-0.9-4.6-2.6-6.3c-3.5-3.5-9.2-3.5-12.6,0l-43,43l-43-43
				c-3.5-3.5-9.2-3.5-12.6,0c-1.7,1.7-2.6,3.9-2.6,6.3c0,2.4,0.9,4.6,2.6,6.3l43,43l-43,43c-1.7,1.7-2.6,3.9-2.6,6.3
				s0.9,4.6,2.6,6.3c1.7,1.7,3.9,2.6,6.3,2.6c2.4,0,4.6-0.9,6.3-2.6l43-43l43,43c1.7,1.7,3.9,2.6,6.3,2.6c2.4,0,4.6-0.9,6.3-2.6
				c1.7-1.7,2.6-3.9,2.6-6.3s-0.9-4.6-2.6-6.3L1372.1-993.9z"/>
			<path class="st2" d="M981.7-1277l-126.7-121.4l-20.2,21.1l126.7,121.4L981.7-1277z M855.3-1386.6l114.6,109.9l-8.7,9
				l-114.6-109.9L855.3-1386.6z"/>
			<path class="st2" d="M981.7-155L855.1-276.4l-20.2,21.1l126.7,121.4L981.7-155z M855.3-264.6l114.6,109.9l-8.7,9L846.6-255.6
				L855.3-264.6z"/>
			
				<ellipse transform="matrix(0.9881 -0.1541 0.1541 0.9881 173.6802 97.3966)" class="st3" cx="715.1" cy="-1071.7" rx="98.8" ry="98.8"/>
			<circle class="st3" cx="918.8" cy="-314.3" r="21.2"/>
			<g>
				<path class="st4" d="M799.8-1123.9c6.4,3.5,14.5,1.2,18-5.2s1.2-14.5-5.2-18c-2.1-1.2-4.5-1.7-6.7-1.6c-2.6,0.8-5.1,1.7-7.7,2.7
					c-1.4,1.1-2.7,2.5-3.6,4.2C791.1-1135.5,793.4-1127.4,799.8-1123.9z"/>
				<path class="st4" d="M793.1-1084.5L793.1-1084.5c3.5-6.4,1.2-14.5-5.2-18c-6.4-3.5-14.5-1.2-18,5.2l0,0
					c-3.5,6.4-1.2,14.5,5.2,18C781.5-1075.7,789.6-1078.1,793.1-1084.5z"/>
				
					<ellipse transform="matrix(0.8748 -0.4845 0.4845 0.8748 601.7032 235.671)" class="st4" cx="756.8" cy="-1046.3" rx="13.3" ry="13.3"/>
				
					<ellipse transform="matrix(0.8748 -0.4845 0.4845 0.8748 577.007 229.2884)" class="st4" cx="732.1" cy="-1001.7" rx="13.3" ry="13.3"/>
				<path class="st4" d="M719-950.7c3.5-6.4,1.2-14.5-5.2-18c-6.4-3.5-14.5-1.2-18,5.2c-0.9,1.7-1.4,3.5-1.6,5.3
					c0.5,2.7,1.1,5.3,1.8,7.9c1.2,2,2.8,3.7,5,4.8C707.4-942,715.5-944.3,719-950.7z"/>
				<path class="st4" d="M765.7-1128.8c0.2-0.4,0.4-0.8,0.6-1.1c-3.8,2.5-7.6,5.1-11.2,7.9C759.4-1122.3,763.4-1124.7,765.7-1128.8z
					"/>
				<path class="st4" d="M723-1079c6.4,3.5,14.5,1.2,18-5.2l0,0c3.5-6.4,1.2-14.5-5.2-18l0,0c-0.5-0.3-1-0.5-1.5-0.7
					c-5.7,6.2-10.9,12.9-15.7,20.1C719.8-1081.3,721.2-1080,723-1079L723-1079z"/>
				<path class="st4" d="M698.3-1034.4c6.4,3.5,14.5,1.2,18-5.2c3.5-6.4,1.2-14.5-5.2-18l0,0c-1.7-1-3.6-1.5-5.5-1.6
					c-3.6,7.8-6.5,15.8-8.7,23.9C697.3-1035,697.8-1034.7,698.3-1034.4L698.3-1034.4z"/>
				<path class="st4" d="M691.7-1007.6c-0.5,4.6-0.7,9.1-0.8,13.7c0.2-0.3,0.5-0.7,0.7-1.1C693.8-999.1,693.7-1003.8,691.7-1007.6z"
					/>
				<path class="st4" d="M978.7-1083.1c4.8,2.7,10.6,2,14.7-1.2c-4.9-7.3-10.5-14.2-16.6-20.7c-1.3,1-2.4,2.3-3.2,3.9
					C970-1094.7,972.3-1086.6,978.7-1083.1z"/>
				
					<ellipse transform="matrix(0.8748 -0.4845 0.4845 0.8748 629.0236 333.8518)" class="st4" cx="960.4" cy="-1050.1" rx="13.3" ry="13.3"/>
				<path class="st4" d="M924.1-1011.9L924.1-1011.9c-3.5,6.4-1.2,14.5,5.2,18c6.4,3.5,14.5,1.2,18-5.2l0,0c3.5-6.4,1.2-14.5-5.2-18
					C935.7-1020.6,927.7-1018.3,924.1-1011.9z"/>
				
					<ellipse transform="matrix(0.8748 -0.4845 0.4845 0.8748 579.6287 321.0864)" class="st4" cx="911" cy="-960.9" rx="13.3" ry="13.3"/>
				
					<ellipse transform="matrix(0.8748 -0.4845 0.4845 0.8748 554.9315 314.7038)" class="st4" cx="886.3" cy="-916.3" rx="13.3" ry="13.3"/>
				
					<ellipse transform="matrix(0.8748 -0.4845 0.4845 0.8748 530.237 308.3219)" class="st4" cx="861.6" cy="-871.7" rx="13.3" ry="13.3"/>
				<path class="st4" d="M843.4-838.7c-6.4-3.5-14.5-1.2-18,5.2c-0.8,1.5-1.4,3.2-1.6,4.8c8.7,1.8,17.5,2.8,26.3,3.1
					C850.7-830.8,848.2-836,843.4-838.7z"/>
				
					<ellipse transform="matrix(0.8748 -0.4845 0.4845 0.8748 647.066 315.0122)" class="st4" cx="933" cy="-1094.4" rx="13.3" ry="13.3"/>
				
					<ellipse transform="matrix(0.8748 -0.4845 0.4845 0.8748 622.371 308.6301)" class="st4" cx="908.3" cy="-1049.8" rx="13.3" ry="13.3"/>
				<path class="st4" d="M895.2-998.8L895.2-998.8c3.5-6.4,1.2-14.5-5.2-18c-6.4-3.5-14.5-1.2-18,5.2l0,0c-3.5,6.4-1.2,14.5,5.2,18
					C883.6-990.1,891.6-992.4,895.2-998.8z"/>
				
					<ellipse transform="matrix(0.8748 -0.4845 0.4845 0.8748 572.9738 295.8642)" class="st4" cx="858.9" cy="-960.6" rx="13.3" ry="13.3"/>
				
					<ellipse transform="matrix(0.8748 -0.4845 0.4845 0.8748 548.2803 289.4824)" class="st4" cx="834.2" cy="-916" rx="13.3" ry="13.3"/>
				
					<ellipse transform="matrix(0.8748 -0.4845 0.4845 0.8748 523.5791 283.0988)" class="st4" cx="809.5" cy="-871.4" rx="13.3" ry="13.3"/>
				<path class="st4" d="M1003.7-967.8L1003.7-967.8c-3.5,6.4-1.2,14.5,5.2,18c2.4,1.3,5,1.8,7.6,1.6c2.2-8.3,3.8-16.7,4.7-25.1
					C1014.8-976.4,1007.1-974.1,1003.7-967.8z"/>
				<path class="st4" d="M997-928.4c-6.4-3.5-14.5-1.2-18,5.2c-3.5,6.4-1.2,14.5,5.2,18c4.8,2.6,10.4,2,14.5-1.1
					c0.9-1.5,1.8-3,2.7-4.5c0.9-1.5,1.6-3.1,2.4-4.7C1004.3-920.6,1001.8-925.8,997-928.4z"/>
				<path class="st4" d="M954.3-878.6c-3.4,6.2-1.3,14,4.6,17.7c6.6-5.2,12.9-11,18.8-17.3c-1.2-2.3-3-4.2-5.4-5.6
					C965.9-887.4,957.8-885.1,954.3-878.6z"/>
				<path class="st4" d="M1006.1-1038.7c3,1.6,6.3,2,9.3,1.3c-2.4-8.4-5.6-16.6-9.3-24.5c-2.1,1.2-3.9,2.9-5.2,5.2
					C997.4-1050.3,999.7-1042.3,1006.1-1038.7z"/>
				
					<ellipse transform="matrix(0.8748 -0.4845 0.4845 0.8748 610.9814 352.6914)" class="st4" cx="987.9" cy="-1005.7" rx="13.3" ry="13.3"/>
				<path class="st4" d="M951.6-967.6L951.6-967.6c-3.5,6.4-1.2,14.5,5.2,18c6.4,3.5,14.5,1.2,18-5.2l0,0c3.5-6.4,1.2-14.5-5.2-18
					C963.2-976.3,955.1-974,951.6-967.6z"/>
				
					<ellipse transform="matrix(0.8748 -0.4845 0.4845 0.8748 561.5866 339.9261)" class="st4" cx="938.5" cy="-916.6" rx="13.3" ry="13.3"/>
				
					<ellipse transform="matrix(0.8748 -0.4845 0.4845 0.8748 536.8932 333.5446)" class="st4" cx="913.8" cy="-872" rx="13.3" ry="13.3"/>
				<path class="st4" d="M877.5-833.8c-1.3,2.3-1.8,4.7-1.6,7.1c8.7-1,17.3-2.7,25.7-5.1c-1-3-3.1-5.6-6.1-7.2
					C889.1-842.5,881-840.2,877.5-833.8z"/>
				<path class="st4" d="M899.1-1127.1c6.4,3.5,14.5,1.2,18-5.2c2.3-4.1,2.1-9,0-12.8c-5.6-2.2-11.3-4.1-17-5.7
					c-2.5,1.1-4.8,3.1-6.2,5.7C890.4-1138.7,892.7-1130.7,899.1-1127.1z"/>
				
					<ellipse transform="matrix(0.8748 -0.4845 0.4845 0.8748 640.4128 289.7904)" class="st4" cx="880.9" cy="-1094.1" rx="13.3" ry="13.3"/>
				<path class="st4" d="M867.8-1043.1L867.8-1043.1c3.5-6.4,1.2-14.5-5.2-18c-6.4-3.5-14.5-1.2-18,5.2l0,0
					c-3.5,6.4-1.2,14.5,5.2,18C856.2-1034.4,864.2-1036.7,867.8-1043.1z"/>
				
					<ellipse transform="matrix(0.8748 -0.4845 0.4845 0.8748 591.0212 277.0257)" class="st4" cx="831.5" cy="-1004.9" rx="13.3" ry="13.3"/>
				
					<ellipse transform="matrix(0.8748 -0.4845 0.4845 0.8748 566.3187 270.642)" class="st4" cx="806.8" cy="-960.4" rx="13.3" ry="13.3"/>
				
					<ellipse transform="matrix(0.8748 -0.4845 0.4845 0.8748 541.6229 264.2596)" class="st4" cx="782.1" cy="-915.8" rx="13.3" ry="13.3"/>
				<path class="st4" d="M769-864.7c3.5-6.4,1.2-14.5-5.2-18c-6.4-3.5-14.5-1.2-18,5.2c-1.5,2.6-1.9,5.5-1.5,8.3
					c4.4,4,9,7.8,13.8,11.4C762.5-858.2,766.7-860.6,769-864.7z"/>
				
					<ellipse transform="matrix(0.8748 -0.4845 0.4845 0.8748 658.4526 270.9503)" class="st4" cx="853.4" cy="-1138.5" rx="13.3" ry="13.3"/>
				
					<ellipse transform="matrix(0.8748 -0.4845 0.4845 0.8748 633.7603 264.5683)" class="st4" cx="828.7" cy="-1093.9" rx="13.3" ry="13.3"/>
				<path class="st4" d="M815.6-1042.8L815.6-1042.8c3.5-6.4,1.2-14.5-5.2-18c-6.4-3.5-14.5-1.2-18,5.2l0,0
					c-3.5,6.4-1.2,14.5,5.2,18C804-1034.1,812.1-1036.4,815.6-1042.8z"/>
				
					<ellipse transform="matrix(0.8748 -0.4845 0.4845 0.8748 584.362 251.8024)" class="st4" cx="779.3" cy="-1004.7" rx="13.3" ry="13.3"/>
				
					<ellipse transform="matrix(0.8748 -0.4845 0.4845 0.8748 559.6626 245.4194)" class="st4" cx="754.7" cy="-960.1" rx="13.3" ry="13.3"/>
				
					<ellipse transform="matrix(0.8748 -0.4845 0.4845 0.8748 534.9663 239.0369)" class="st4" cx="730" cy="-915.5" rx="13.3" ry="13.3"/>
			</g>
			<path class="st2" d="M970.5-649.7c-3.6,0-7.1-1.5-9.7-4.3c-17-18.9-25.7-43.4-24.4-68.8c1.3-25.4,12.5-48.8,31.4-65.9
				c39.1-35.2,99.5-32,134.7,7c4.8,5.3,4.4,13.6-1,18.4c-5.3,4.8-13.6,4.4-18.4-1c-12.4-13.8-29.4-21.9-47.9-22.9
				c-18.5-1-36.3,5.3-50.1,17.7c-13.8,12.4-21.9,29.4-22.9,47.9c-1,18.5,5.3,36.3,17.7,50.1c4.8,5.3,4.4,13.6-1,18.4
				C976.7-650.8,973.6-649.7,970.5-649.7z"/>
			<path class="st3" d="M424.4-288.7c0.5-3.5,2.4-6.8,5.6-9c21-14.4,46.4-19.7,71.4-15c25,4.7,46.7,18.9,61.1,39.9
				c29.7,43.4,18.5,102.9-24.9,132.6c-5.9,4.1-14,2.5-18.1-3.4c-4.1-5.9-2.5-14,3.4-18.1c15.3-10.5,25.6-26.2,29-44.5
				c3.4-18.2-0.4-36.7-10.9-52c-10.5-15.3-26.2-25.6-44.5-29c-18.2-3.4-36.7,0.4-52,10.9c-5.9,4.1-14,2.5-18.1-3.4
				C424.7-282.4,424-285.6,424.4-288.7z"/>
			<path class="st3" d="M424.4-1410.7c0.5-3.5,2.4-6.8,5.6-9c21-14.4,46.4-19.7,71.4-15c25,4.7,46.7,18.9,61.1,39.9
				c29.7,43.4,18.5,102.9-24.9,132.6c-5.9,4.1-14,2.5-18.1-3.4c-4.1-5.9-2.5-14,3.4-18.1c15.3-10.5,25.6-26.2,29-44.5
				c3.4-18.2-0.4-36.7-10.9-52c-10.5-15.3-26.2-25.6-44.5-29c-18.2-3.4-36.7,0.4-52,10.9c-5.9,4.1-14,2.5-18.1-3.4
				C424.7-1404.4,424-1407.6,424.4-1410.7z"/>
			<path class="st4" d="M1400.1-511.6c-17.6,0-34.3-7.6-45.8-20.8c-7.8-8.9-19-14-30.8-14c-11.8,0-23,5.1-30.8,14
				c-11.6,13.2-28.3,20.8-45.8,20.8c-17.6,0-34.3-7.6-45.8-20.8c-7.8-8.9-19-14-30.8-14c-11.8,0-23,5.1-30.8,14
				c-3.6,4.2-10,4.6-14.1,0.9c-4.2-3.6-4.6-10-0.9-14.1c11.6-13.2,28.3-20.8,45.8-20.8c17.6,0,34.3,7.6,45.8,20.8
				c7.8,8.9,19,14,30.8,14c11.8,0,23-5.1,30.8-14c11.6-13.2,28.3-20.8,45.8-20.8c17.6,0,34.3,7.6,45.8,20.8c7.8,8.9,19,14,30.8,14
				c11.8,0,23-5.1,30.8-14c11.6-13.2,28.3-20.8,45.8-20.8c17.6,0,34.3,7.6,45.8,20.8c3.6,4.2,3.2,10.5-0.9,14.1
				c-4.2,3.6-10.5,3.2-14.1-0.9c-7.8-8.9-19-14-30.8-14c-11.8,0-23,5.1-30.8,14C1434.4-519.1,1417.7-511.6,1400.1-511.6z"/>
			<path class="st4" d="M1400.1-456.8c-17.6,0-34.3-7.6-45.8-20.8c-7.8-8.9-19-14-30.8-14c-11.8,0-23,5.1-30.8,14
				c-11.6,13.2-28.3,20.8-45.8,20.8c-17.6,0-34.3-7.6-45.8-20.8c-7.8-8.9-19-14-30.8-14c-11.8,0-23,5.1-30.8,14
				c-3.6,4.2-10,4.6-14.1,0.9c-4.2-3.6-4.6-10-0.9-14.1c11.6-13.2,28.3-20.8,45.8-20.8c17.6,0,34.3,7.6,45.8,20.8
				c7.8,8.9,19,14,30.8,14c11.8,0,23-5.1,30.8-14c11.6-13.2,28.3-20.8,45.8-20.8c17.6,0,34.3,7.6,45.8,20.8c7.8,8.9,19,14,30.8,14
				c11.8,0,23-5.1,30.8-14c11.6-13.2,28.3-20.8,45.8-20.8c17.6,0,34.3,7.6,45.8,20.8c3.6,4.2,3.2,10.5-0.9,14.1
				c-4.2,3.6-10.5,3.2-14.1-0.9c-7.8-8.9-19-14-30.8-14c-11.8,0-23,5.1-30.8,14C1434.4-464.4,1417.7-456.8,1400.1-456.8z"/>
			<path class="st4" d="M1400.1-402.1c-17.6,0-34.3-7.6-45.8-20.8c-7.8-8.9-19-14-30.8-14c-11.8,0-23,5.1-30.8,14
				c-11.6,13.2-28.3,20.8-45.8,20.8c-17.6,0-34.3-7.6-45.8-20.8c-7.8-8.9-19-14-30.8-14c-11.8,0-23,5.1-30.8,14
				c-3.6,4.2-10,4.6-14.1,0.9c-4.2-3.6-4.6-10-0.9-14.1c11.6-13.2,28.3-20.8,45.8-20.8c17.6,0,34.3,7.6,45.8,20.8
				c7.8,8.9,19,14,30.8,14c11.8,0,23-5.1,30.8-14c11.6-13.2,28.3-20.8,45.8-20.8c17.6,0,34.3,7.6,45.8,20.8c7.8,8.9,19,14,30.8,14
				c11.8,0,23-5.1,30.8-14c11.6-13.2,28.3-20.8,45.8-20.8c17.6,0,34.3,7.6,45.8,20.8c3.6,4.2,3.2,10.5-0.9,14.1
				c-4.2,3.6-10.5,3.2-14.1-0.9c-7.8-8.9-19-14-30.8-14c-11.8,0-23,5.1-30.8,14C1434.4-409.6,1417.7-402.1,1400.1-402.1z"/>
			<path class="st4" d="M278.1-511.6c-17.6,0-34.3-7.6-45.8-20.8c-7.8-8.9-19-14-30.8-14c-11.8,0-23,5.1-30.8,14
				c-11.6,13.2-28.3,20.8-45.8,20.8c-17.6,0-34.3-7.6-45.8-20.8c-7.8-8.9-19-14-30.8-14c-11.8,0-23,5.1-30.8,14
				c-3.6,4.2-10,4.6-14.1,0.9c-4.2-3.6-4.6-10-0.9-14.1c11.6-13.2,28.3-20.8,45.8-20.8c17.6,0,34.3,7.6,45.8,20.8
				c7.8,8.9,19,14,30.8,14c11.8,0,23-5.1,30.8-14c11.6-13.2,28.3-20.8,45.8-20.8c17.6,0,34.3,7.6,45.8,20.8c7.8,8.9,19,14,30.8,14
				c11.8,0,23-5.1,30.8-14c11.6-13.2,28.3-20.8,45.8-20.8c17.6,0,34.3,7.6,45.8,20.8c3.6,4.2,3.2,10.5-0.9,14.1
				c-4.2,3.6-10.5,3.2-14.1-0.9c-7.8-8.9-19-14-30.8-14c-11.8,0-23,5.1-30.8,14C312.4-519.1,295.7-511.6,278.1-511.6z"/>
			<path class="st4" d="M278.1-456.8c-17.6,0-34.3-7.6-45.8-20.8c-7.8-8.9-19-14-30.8-14c-11.8,0-23,5.1-30.8,14
				c-11.6,13.2-28.3,20.8-45.8,20.8c-17.6,0-34.3-7.6-45.8-20.8c-7.8-8.9-19-14-30.8-14c-11.8,0-23,5.1-30.8,14
				c-3.6,4.2-10,4.6-14.1,0.9c-4.2-3.6-4.6-10-0.9-14.1C14-504,30.7-511.6,48.3-511.6c17.6,0,34.3,7.6,45.8,20.8
				c7.8,8.9,19,14,30.8,14c11.8,0,23-5.1,30.8-14c11.6-13.2,28.3-20.8,45.8-20.8c17.6,0,34.3,7.6,45.8,20.8c7.8,8.9,19,14,30.8,14
				c11.8,0,23-5.1,30.8-14c11.6-13.2,28.3-20.8,45.8-20.8c17.6,0,34.3,7.6,45.8,20.8c3.6,4.2,3.2,10.5-0.9,14.1
				c-4.2,3.6-10.5,3.2-14.1-0.9c-7.8-8.9-19-14-30.8-14c-11.8,0-23,5.1-30.8,14C312.4-464.4,295.7-456.8,278.1-456.8z"/>
			<path class="st4" d="M278.1-402.1c-17.6,0-34.3-7.6-45.8-20.8c-7.8-8.9-19-14-30.8-14c-11.8,0-23,5.1-30.8,14
				c-11.6,13.2-28.3,20.8-45.8,20.8c-17.6,0-34.3-7.6-45.8-20.8c-7.8-8.9-19-14-30.8-14c-11.8,0-23,5.1-30.8,14
				c-3.6,4.2-10,4.6-14.1,0.9c-4.2-3.6-4.6-10-0.9-14.1c11.6-13.2,28.3-20.8,45.8-20.8c17.6,0,34.3,7.6,45.8,20.8
				c7.8,8.9,19,14,30.8,14c11.8,0,23-5.1,30.8-14c11.6-13.2,28.3-20.8,45.8-20.8c17.6,0,34.3,7.6,45.8,20.8c7.8,8.9,19,14,30.8,14
				c11.8,0,23-5.1,30.8-14c11.6-13.2,28.3-20.8,45.8-20.8c17.6,0,34.3,7.6,45.8,20.8c3.6,4.2,3.2,10.5-0.9,14.1
				c-4.2,3.6-10.5,3.2-14.1-0.9c-7.8-8.9-19-14-30.8-14c-11.8,0-23,5.1-30.8,14C312.4-409.6,295.7-402.1,278.1-402.1z"/>
			
				<rect x="581.4" y="-652.7" transform="matrix(0.8268 0.5624 -0.5624 0.8268 -173.6961 -489.087)" class="st1" width="252.1" height="252.1"/>
			
				<rect x="1256.7" y="-773.5" transform="matrix(0.8881 -0.4596 0.4596 0.8881 483.2895 511.9583)" class="st3" width="73.4" height="73.4"/>
			<polygon class="st3" points="823.3,-644.2 870.3,-581.8 788.9,-575.2 			"/>
		</g>
		<g>
			<path class="st1" d="M79.3-1123.8l227-131.8c3.9-2.3,6.4-6.4,6.7-10.9c0.3-4.5-1.7-8.9-5.3-11.6l-174.2-132.8
				c-3.7-2.8-8.6-3.6-13-1.9c-4.4,1.7-7.6,5.4-8.5,10l-52.8,264.6c-1,5.2,1.1,10.6,5.4,13.7c2.4,1.7,5.1,2.5,7.9,2.5
				C74.8-1122,77.2-1122.6,79.3-1123.8z M275.1-1268.9L91.7-1162.4l42.7-213.8L275.1-1268.9z"/>
			<path class="st1" d="M79.3-1.8l227-131.8c3.9-2.3,6.4-6.4,6.7-10.9c0.3-4.5-1.7-8.9-5.3-11.6L133.5-288.9
				c-3.7-2.8-8.6-3.6-13-1.9c-4.4,1.7-7.6,5.5-8.5,10L59.2-16.2c-1,5.2,1.1,10.6,5.4,13.7C66.9-0.9,69.7,0,72.5,0
				C74.8,0,77.2-0.6,79.3-1.8z M275.1-146.9L91.7-40.4l42.7-213.8L275.1-146.9z"/>
			<path class="st4" d="M250.1-993.9l43-43c1.7-1.7,2.6-3.9,2.6-6.3c0-2.4-0.9-4.6-2.6-6.3c-3.5-3.5-9.2-3.5-12.6,0l-43,43l-43-43
				c-3.5-3.5-9.2-3.5-12.6,0c-1.7,1.7-2.6,3.9-2.6,6.3c0,2.4,0.9,4.6,2.6,6.3l43,43l-43,43c-1.7,1.7-2.6,3.9-2.6,6.3
				s0.9,4.6,2.6,6.3c1.7,1.7,3.9,2.6,6.3,2.6c2.4,0,4.6-0.9,6.3-2.6l43-43l43,43c1.7,1.7,3.9,2.6,6.3,2.6c2.4,0,4.6-0.9,6.3-2.6
				c1.7-1.7,2.6-3.9,2.6-6.3s-0.9-4.6-2.6-6.3L250.1-993.9z"/>
			<path class="st4" d="M278.1-511.6c-17.6,0-34.3-7.6-45.8-20.8c-7.8-8.9-19-14-30.8-14c-11.8,0-23,5.1-30.8,14
				c-11.6,13.2-28.3,20.8-45.8,20.8c-17.6,0-34.3-7.6-45.8-20.8c-7.8-8.9-19-14-30.8-14c-11.8,0-23,5.1-30.8,14
				c-3.6,4.2-10,4.6-14.1,0.9c-4.2-3.6-4.6-10-0.9-14.1c11.6-13.2,28.3-20.8,45.8-20.8c17.6,0,34.3,7.6,45.8,20.8
				c7.8,8.9,19,14,30.8,14c11.8,0,23-5.1,30.8-14c11.6-13.2,28.3-20.8,45.8-20.8c17.6,0,34.3,7.6,45.8,20.8c7.8,8.9,19,14,30.8,14
				c11.8,0,23-5.1,30.8-14c11.6-13.2,28.3-20.8,45.8-20.8c17.6,0,34.3,7.6,45.8,20.8c3.6,4.2,3.2,10.5-0.9,14.1
				c-4.2,3.6-10.5,3.2-14.1-0.9c-7.8-8.9-19-14-30.8-14c-11.8,0-23,5.1-30.8,14C312.4-519.1,295.7-511.6,278.1-511.6z"/>
			<path class="st4" d="M278.1-456.8c-17.6,0-34.3-7.6-45.8-20.8c-7.8-8.9-19-14-30.8-14c-11.8,0-23,5.1-30.8,14
				c-11.6,13.2-28.3,20.8-45.8,20.8c-17.6,0-34.3-7.6-45.8-20.8c-7.8-8.9-19-14-30.8-14c-11.8,0-23,5.1-30.8,14
				c-3.6,4.2-10,4.6-14.1,0.9c-4.2-3.6-4.6-10-0.9-14.1C14-504,30.7-511.6,48.3-511.6c17.6,0,34.3,7.6,45.8,20.8
				c7.8,8.9,19,14,30.8,14c11.8,0,23-5.1,30.8-14c11.6-13.2,28.3-20.8,45.8-20.8c17.6,0,34.3,7.6,45.8,20.8c7.8,8.9,19,14,30.8,14
				c11.8,0,23-5.1,30.8-14c11.6-13.2,28.3-20.8,45.8-20.8c17.6,0,34.3,7.6,45.8,20.8c3.6,4.2,3.2,10.5-0.9,14.1
				c-4.2,3.6-10.5,3.2-14.1-0.9c-7.8-8.9-19-14-30.8-14c-11.8,0-23,5.1-30.8,14C312.4-464.4,295.7-456.8,278.1-456.8z"/>
			<path class="st4" d="M278.1-402.1c-17.6,0-34.3-7.6-45.8-20.8c-7.8-8.9-19-14-30.8-14c-11.8,0-23,5.1-30.8,14
				c-11.6,13.2-28.3,20.8-45.8,20.8c-17.6,0-34.3-7.6-45.8-20.8c-7.8-8.9-19-14-30.8-14c-11.8,0-23,5.1-30.8,14
				c-3.6,4.2-10,4.6-14.1,0.9c-4.2-3.6-4.6-10-0.9-14.1c11.6-13.2,28.3-20.8,45.8-20.8c17.6,0,34.3,7.6,45.8,20.8
				c7.8,8.9,19,14,30.8,14c11.8,0,23-5.1,30.8-14c11.6-13.2,28.3-20.8,45.8-20.8c17.6,0,34.3,7.6,45.8,20.8c7.8,8.9,19,14,30.8,14
				c11.8,0,23-5.1,30.8-14c11.6-13.2,28.3-20.8,45.8-20.8c17.6,0,34.3,7.6,45.8,20.8c3.6,4.2,3.2,10.5-0.9,14.1
				c-4.2,3.6-10.5,3.2-14.1-0.9c-7.8-8.9-19-14-30.8-14c-11.8,0-23,5.1-30.8,14C312.4-409.6,295.7-402.1,278.1-402.1z"/>
		</g>
		<g>
			<path class="st1" d="M1201.3-1123.8l227-131.8c3.9-2.3,6.4-6.4,6.7-10.9c0.3-4.5-1.7-8.9-5.3-11.6l-174.2-132.8
				c-3.7-2.8-8.6-3.6-13-1.9c-4.4,1.7-7.6,5.4-8.5,10l-52.8,264.6c-1,5.2,1.1,10.6,5.4,13.7c2.4,1.7,5.1,2.5,7.9,2.5
				C1196.8-1122,1199.2-1122.6,1201.3-1123.8z M1397.1-1268.9l-183.4,106.5l42.7-213.8L1397.1-1268.9z"/>
			<path class="st2" d="M981.7-1277l-126.7-121.4l-20.2,21.1l126.7,121.4L981.7-1277z M855.3-1386.6l114.6,109.9l-8.7,9
				l-114.6-109.9L855.3-1386.6z"/>
			<path class="st3" d="M424.4-1410.7c0.5-3.5,2.4-6.8,5.6-9c21-14.4,46.4-19.7,71.4-15c25,4.7,46.7,18.9,61.1,39.9
				c29.7,43.4,18.5,102.9-24.9,132.6c-5.9,4.1-14,2.5-18.1-3.4c-4.1-5.9-2.5-14,3.4-18.1c15.3-10.5,25.6-26.2,29-44.5
				c3.4-18.2-0.4-36.7-10.9-52c-10.5-15.3-26.2-25.6-44.5-29c-18.2-3.4-36.7,0.4-52,10.9c-5.9,4.1-14,2.5-18.1-3.4
				C424.7-1404.4,424-1407.6,424.4-1410.7z"/>
		</g>
		<g>
			<path class="st1" d="M79.3-1123.8l227-131.8c3.9-2.3,6.4-6.4,6.7-10.9c0.3-4.5-1.7-8.9-5.3-11.6l-174.2-132.8
				c-3.7-2.8-8.6-3.6-13-1.9c-4.4,1.7-7.6,5.4-8.5,10l-52.8,264.6c-1,5.2,1.1,10.6,5.4,13.7c2.4,1.7,5.1,2.5,7.9,2.5
				C74.8-1122,77.2-1122.6,79.3-1123.8z M275.1-1268.9L91.7-1162.4l42.7-213.8L275.1-1268.9z"/>
		</g>
	</g>
</pattern>
<g id="Object" class="st5">
	<rect x="4.9" y="6.9" class="st6" width="1200" height="800"/>
</g>
<g id="Pattern_Editing_Mode">
	<rect class="st7" width="1369.9" height="815.5"/>
	<polygon class="st2" points="490.4,366.3 382.7,407.6 459.3,281 	"/>
	<path class="st1" d="M1225.2,61.1l227-131.8c3.9-2.3,6.4-6.4,6.7-10.9c0.3-4.5-1.7-8.9-5.3-11.6L1279.4-226
		c-3.7-2.8-8.6-3.6-13-1.9c-4.4,1.7-7.6,5.4-8.5,10l-52.8,264.6c-1,5.2,1.1,10.6,5.4,13.7c2.4,1.7,5.1,2.5,7.9,2.5
		C1220.7,62.9,1223.1,62.3,1225.2,61.1z M1420.9-83.9L1237.6,22.5l42.7-213.8L1420.9-83.9z"/>
	<path class="st8" d="M1396,191l43-43c1.7-1.7,2.6-3.9,2.6-6.3c0-2.4-0.9-4.6-2.6-6.3c-3.5-3.5-9.2-3.5-12.6,0l-43,43l-43-43
		c-3.5-3.5-9.2-3.5-12.6,0c-1.7,1.7-2.6,3.9-2.6,6.3c0,2.4,0.9,4.6,2.6,6.3l43,43l-43,43c-1.7,1.7-2.6,3.9-2.6,6.3s0.9,4.6,2.6,6.3
		c1.7,1.7,3.9,2.6,6.3,2.6c2.4,0,4.6-0.9,6.3-2.6l43-43l43,43c1.7,1.7,3.9,2.6,6.3,2.6c2.4,0,4.6-0.9,6.3-2.6
		c1.7-1.7,2.6-3.9,2.6-6.3s-0.9-4.6-2.6-6.3L1396,191z"/>
	<circle class="st3" cx="830.7" cy="342.2" r="21.2"/>
	
		<ellipse transform="matrix(0.1541 -0.9881 0.9881 0.1541 513.2397 825.9763)" class="st3" cx="739" cy="113.2" rx="98.8" ry="98.8"/>
	<g>
		
			<ellipse transform="matrix(0.4845 -0.8748 0.8748 0.4845 407.4181 680.0029)" class="st8" cx="780.7" cy="-5.7" rx="13.3" ry="13.3"/>
		
			<ellipse transform="matrix(0.4845 -0.8748 0.8748 0.4845 355.6786 681.3839)" class="st8" cx="756" cy="38.9" rx="13.3" ry="13.3"/>
		<path class="st8" d="M742.9,89.9c3.5-6.4,1.2-14.5-5.2-18c-6.4-3.5-14.5-1.2-18,5.2c-0.9,1.7-1.4,3.5-1.6,5.3
			c0.5,2.7,1.1,5.3,1.8,7.9c1.2,2,2.8,3.7,5,4.8C731.3,98.6,739.3,96.3,742.9,89.9z"/>
		<path class="st8" d="M722.1,6.2c6.4,3.5,14.5,1.2,18-5.2c3.5-6.4,1.2-14.5-5.2-18l0,0c-1.7-1-3.6-1.5-5.5-1.6
			c-3.6,7.8-6.5,15.8-8.7,23.9C721.2,5.6,721.7,5.9,722.1,6.2L722.1,6.2z"/>
		<path class="st8" d="M715.6,33c-0.5,4.6-0.7,9.1-0.8,13.7c0.2-0.3,0.5-0.7,0.7-1.1C717.7,41.5,717.6,36.8,715.6,33z"/>
		
			<ellipse transform="matrix(0.4845 -0.8748 0.8748 0.4845 515.6741 856.1791)" class="st8" cx="984.3" cy="-9.5" rx="13.3" ry="13.3"/>
		<path class="st8" d="M948,28.7L948,28.7c-3.5,6.4-1.2,14.5,5.2,18c6.4,3.5,14.5,1.2,18-5.2l0,0c3.5-6.4,1.2-14.5-5.2-18
			C959.6,20,951.6,22.3,948,28.7z"/>
		
			<ellipse transform="matrix(0.4845 -0.8748 0.8748 0.4845 412.1956 858.9419)" class="st8" cx="934.9" cy="79.7" rx="13.3" ry="13.3"/>
		
			<ellipse transform="matrix(0.4845 -0.8748 0.8748 0.4845 360.4567 860.3234)" class="st8" cx="910.2" cy="124.3" rx="13.3" ry="13.3"/>
		
			<ellipse transform="matrix(0.4845 -0.8748 0.8748 0.4845 308.7155 861.7033)" class="st8" cx="885.5" cy="168.9" rx="13.3" ry="13.3"/>
		<path class="st8" d="M867.2,201.9c-6.4-3.5-14.5-1.2-18,5.2c-0.8,1.5-1.4,3.2-1.6,4.8c8.7,1.8,17.5,2.8,26.3,3.1
			C874.6,209.8,872.1,204.6,867.2,201.9z"/>
		
			<ellipse transform="matrix(0.4845 -0.8748 0.8748 0.4845 488.571 810.7158)" class="st8" cx="932.2" cy="-9.2" rx="13.3" ry="13.3"/>
		<path class="st8" d="M919.1,41.8L919.1,41.8c3.5-6.4,1.2-14.5-5.2-18c-6.4-3.5-14.5-1.2-18,5.2l0,0c-3.5,6.4-1.2,14.5,5.2,18
			C907.5,50.5,915.5,48.2,919.1,41.8z"/>
		
			<ellipse transform="matrix(0.4845 -0.8748 0.8748 0.4845 385.0941 813.4794)" class="st8" cx="882.8" cy="80" rx="13.3" ry="13.3"/>
		
			<ellipse transform="matrix(0.4845 -0.8748 0.8748 0.4845 333.3525 814.8591)" class="st8" cx="858.1" cy="124.6" rx="13.3" ry="13.3"/>
		
			<ellipse transform="matrix(0.4845 -0.8748 0.8748 0.4845 281.6159 816.2423)" class="st8" cx="833.4" cy="169.2" rx="13.3" ry="13.3"/>
		<path class="st8" d="M1027.6,72.8L1027.6,72.8c-3.5,6.4-1.2,14.5,5.2,18c2.4,1.3,5,1.8,7.6,1.6c2.2-8.3,3.8-16.7,4.7-25.1
			C1038.7,64.2,1031,66.5,1027.6,72.8z"/>
		<path class="st8" d="M1020.9,112.2c-6.4-3.5-14.5-1.2-18,5.2c-3.5,6.4-1.2,14.5,5.2,18c4.8,2.6,10.4,2,14.5-1.1
			c0.9-1.5,1.8-3,2.7-4.5c0.9-1.5,1.6-3.1,2.4-4.7C1028.1,120,1025.7,114.8,1020.9,112.2z"/>
		<path class="st8" d="M978.2,162c-3.4,6.2-1.3,14,4.6,17.7c6.6-5.2,12.9-11,18.8-17.3c-1.2-2.3-3-4.2-5.4-5.6
			C989.8,153.2,981.7,155.6,978.2,162z"/>
		<path class="st8" d="M1030,1.9c3,1.6,6.3,2,9.3,1.3c-2.4-8.4-5.6-16.6-9.3-24.5c-2.1,1.2-3.9,2.9-5.2,5.2
			C1021.3-9.7,1023.6-1.7,1030,1.9z"/>
		
			<ellipse transform="matrix(0.4845 -0.8748 0.8748 0.4845 491.037 903.0229)" class="st8" cx="1011.7" cy="34.9" rx="13.3" ry="13.3"/>
		<path class="st8" d="M975.4,73L975.4,73c-3.5,6.4-1.2,14.5,5.2,18c6.4,3.5,14.5,1.2,18-5.2l0,0c3.5-6.4,1.2-14.5-5.2-18
			C987.1,64.3,979,66.6,975.4,73z"/>
		
			<ellipse transform="matrix(0.4845 -0.8748 0.8748 0.4845 387.5586 905.7858)" class="st8" cx="962.3" cy="124" rx="13.3" ry="13.3"/>
		
			<ellipse transform="matrix(0.4845 -0.8748 0.8748 0.4845 335.8169 907.1652)" class="st8" cx="937.6" cy="168.6" rx="13.3" ry="13.3"/>
		<path class="st8" d="M901.3,206.8c-1.3,2.3-1.8,4.7-1.6,7.1c8.7-1,17.3-2.7,25.7-5.1c-1-3-3.1-5.6-6.1-7.2
			C913,198.1,904.9,200.4,901.3,206.8z"/>
		<path class="st8" d="M891.6-2.5L891.6-2.5c3.5-6.4,1.2-14.5-5.2-18c-6.4-3.5-14.5-1.2-18,5.2l0,0c-3.5,6.4-1.2,14.5,5.2,18
			C880,6.2,888.1,3.9,891.6-2.5z"/>
		
			<ellipse transform="matrix(0.4845 -0.8748 0.8748 0.4845 409.7281 766.634)" class="st8" cx="855.4" cy="35.7" rx="13.3" ry="13.3"/>
		
			<ellipse transform="matrix(0.4845 -0.8748 0.8748 0.4845 357.9921 768.0173)" class="st8" cx="830.7" cy="80.3" rx="13.3" ry="13.3"/>
		
			<ellipse transform="matrix(0.4845 -0.8748 0.8748 0.4845 306.2517 769.3979)" class="st8" cx="806" cy="124.8" rx="13.3" ry="13.3"/>
		<path class="st8" d="M792.9,175.9c3.5-6.4,1.2-14.5-5.2-18c-6.4-3.5-14.5-1.2-18,5.2c-1.5,2.6-1.9,5.5-1.5,8.3
			c4.4,4,9,7.8,13.8,11.4C786.4,182.4,790.6,180,792.9,175.9z"/>
		<path class="st8" d="M839.5-2.2L839.5-2.2c3.5-6.4,1.2-14.5-5.2-18c-6.4-3.5-14.5-1.2-18,5.2l0,0c-3.5,6.4-1.2,14.5,5.2,18
			C827.9,6.5,836,4.2,839.5-2.2z"/>
		
			<ellipse transform="matrix(0.4845 -0.8748 0.8748 0.4845 382.6289 721.1727)" class="st8" cx="803.2" cy="35.9" rx="13.3" ry="13.3"/>
		
			<ellipse transform="matrix(0.4845 -0.8748 0.8748 0.4845 330.8908 722.5549)" class="st8" cx="778.5" cy="80.5" rx="13.3" ry="13.3"/>
		
			<ellipse transform="matrix(0.4845 -0.8748 0.8748 0.4845 279.1514 723.9359)" class="st8" cx="753.8" cy="125.1" rx="13.3" ry="13.3"/>
	</g>
	<path class="st2" d="M994.4,535.2c-3.6,0-7.1-1.5-9.7-4.3c-17-18.9-25.7-43.4-24.4-68.8c1.3-25.4,12.5-48.8,31.4-65.9
		c39.1-35.2,99.5-32,134.7,7c4.8,5.3,4.4,13.6-1,18.4c-5.3,4.8-13.6,4.4-18.4-1c-12.4-13.8-29.4-21.9-47.9-22.9
		c-18.5-1-36.3,5.3-50.1,17.7c-13.8,12.4-21.9,29.4-22.9,47.9c-1,18.5,5.3,36.3,17.7,50.1c4.8,5.3,4.4,13.6-1,18.4
		C1000.6,534.1,997.5,535.2,994.4,535.2z"/>
	<path class="st8" d="M1424,653.3c-17.6,0-34.3-7.6-45.8-20.8c-7.8-8.9-19-14-30.8-14c-11.8,0-23,5.1-30.8,14
		c-11.6,13.2-28.3,20.8-45.8,20.8c-17.6,0-34.3-7.6-45.8-20.8c-7.8-8.9-19-14-30.8-14c-11.8,0-23,5.1-30.8,14
		c-3.6,4.2-10,4.6-14.1,0.9c-4.2-3.6-4.6-10-0.9-14.1c11.6-13.2,28.3-20.8,45.8-20.8c17.6,0,34.3,7.6,45.8,20.8
		c7.8,8.9,19,14,30.8,14c11.8,0,23-5.1,30.8-14c11.6-13.2,28.3-20.8,45.8-20.8c17.6,0,34.3,7.6,45.8,20.8c7.8,8.9,19,14,30.8,14
		c11.8,0,23-5.1,30.8-14c11.6-13.2,28.3-20.8,45.8-20.8c17.6,0,34.3,7.6,45.8,20.8c3.6,4.2,3.2,10.5-0.9,14.1
		c-4.2,3.6-10.5,3.2-14.1-0.9c-7.8-8.9-19-14-30.8-14c-11.8,0-23,5.1-30.8,14C1458.2,645.8,1441.5,653.3,1424,653.3z"/>
	<path class="st8" d="M1424,708.1c-17.6,0-34.3-7.6-45.8-20.8c-7.8-8.9-19-14-30.8-14c-11.8,0-23,5.1-30.8,14
		c-11.6,13.2-28.3,20.8-45.8,20.8c-17.6,0-34.3-7.6-45.8-20.8c-7.8-8.9-19-14-30.8-14c-11.8,0-23,5.1-30.8,14
		c-3.6,4.2-10,4.6-14.1,0.9c-4.2-3.6-4.6-10-0.9-14.1c11.6-13.2,28.3-20.8,45.8-20.8c17.6,0,34.3,7.6,45.8,20.8
		c7.8,8.9,19,14,30.8,14c11.8,0,23-5.1,30.8-14c11.6-13.2,28.3-20.8,45.8-20.8c17.6,0,34.3,7.6,45.8,20.8c7.8,8.9,19,14,30.8,14
		c11.8,0,23-5.1,30.8-14c11.6-13.2,28.3-20.8,45.8-20.8c17.6,0,34.3,7.6,45.8,20.8c3.6,4.2,3.2,10.5-0.9,14.1
		c-4.2,3.6-10.5,3.2-14.1-0.9c-7.8-8.9-19-14-30.8-14c-11.8,0-23,5.1-30.8,14C1458.2,700.5,1441.5,708.1,1424,708.1z"/>
	<path class="st8" d="M1424,762.9c-17.6,0-34.3-7.6-45.8-20.8c-7.8-8.9-19-14-30.8-14c-11.8,0-23,5.1-30.8,14
		c-11.6,13.2-28.3,20.8-45.8,20.8c-17.6,0-34.3-7.6-45.8-20.8c-7.8-8.9-19-14-30.8-14c-11.8,0-23,5.1-30.8,14
		c-3.6,4.2-10,4.6-14.1,0.9c-4.2-3.6-4.6-10-0.9-14.1c11.6-13.2,28.3-20.8,45.8-20.8c17.6,0,34.3,7.6,45.8,20.8
		c7.8,8.9,19,14,30.8,14c11.8,0,23-5.1,30.8-14c11.6-13.2,28.3-20.8,45.8-20.8c17.6,0,34.3,7.6,45.8,20.8c7.8,8.9,19,14,30.8,14
		c11.8,0,23-5.1,30.8-14c11.6-13.2,28.3-20.8,45.8-20.8c17.6,0,34.3,7.6,45.8,20.8c3.6,4.2,3.2,10.5-0.9,14.1
		c-4.2,3.6-10.5,3.2-14.1-0.9c-7.8-8.9-19-14-30.8-14c-11.8,0-23,5.1-30.8,14C1458.2,755.3,1441.5,762.9,1424,762.9z"/>
	<path class="st8" d="M302,653.3c-17.6,0-34.3-7.6-45.8-20.8c-7.8-8.9-19-14-30.8-14c-11.8,0-23,5.1-30.8,14
		c-11.6,13.2-28.3,20.8-45.8,20.8c-17.6,0-34.3-7.6-45.8-20.8c-7.8-8.9-19-14-30.8-14c-11.8,0-23,5.1-30.8,14
		c-3.6,4.2-10,4.6-14.1,0.9c-4.2-3.6-4.6-10-0.9-14.1c11.6-13.2,28.3-20.8,45.8-20.8c17.6,0,34.3,7.6,45.8,20.8
		c7.8,8.9,19,14,30.8,14c11.8,0,23-5.1,30.8-14c11.6-13.2,28.3-20.8,45.8-20.8c17.6,0,34.3,7.6,45.8,20.8c7.8,8.9,19,14,30.8,14
		c11.8,0,23-5.1,30.8-14c11.6-13.2,28.3-20.8,45.8-20.8c17.6,0,34.3,7.6,45.8,20.8c3.6,4.2,3.2,10.5-0.9,14.1
		c-4.2,3.6-10.5,3.2-14.1-0.9c-7.8-8.9-19-14-30.8-14c-11.8,0-23,5.1-30.8,14C336.2,645.8,319.5,653.3,302,653.3z"/>
	<path class="st8" d="M302,708.1c-17.6,0-34.3-7.6-45.8-20.8c-7.8-8.9-19-14-30.8-14c-11.8,0-23,5.1-30.8,14
		c-11.6,13.2-28.3,20.8-45.8,20.8c-17.6,0-34.3-7.6-45.8-20.8c-7.8-8.9-19-14-30.8-14c-11.8,0-23,5.1-30.8,14
		c-3.6,4.2-10,4.6-14.1,0.9c-4.2-3.6-4.6-10-0.9-14.1c11.6-13.2,28.3-20.8,45.8-20.8c17.6,0,34.3,7.6,45.8,20.8
		c7.8,8.9,19,14,30.8,14c11.8,0,23-5.1,30.8-14c11.6-13.2,28.3-20.8,45.8-20.8c17.6,0,34.3,7.6,45.8,20.8c7.8,8.9,19,14,30.8,14
		c11.8,0,23-5.1,30.8-14c11.6-13.2,28.3-20.8,45.8-20.8c17.6,0,34.3,7.6,45.8,20.8c3.6,4.2,3.2,10.5-0.9,14.1
		c-4.2,3.6-10.5,3.2-14.1-0.9c-7.8-8.9-19-14-30.8-14c-11.8,0-23,5.1-30.8,14C336.2,700.5,319.5,708.1,302,708.1z"/>
	<path class="st8" d="M302,762.9c-17.6,0-34.3-7.6-45.8-20.8c-7.8-8.9-19-14-30.8-14c-11.8,0-23,5.1-30.8,14
		c-11.6,13.2-28.3,20.8-45.8,20.8c-17.6,0-34.3-7.6-45.8-20.8c-7.8-8.9-19-14-30.8-14c-11.8,0-23,5.1-30.8,14
		c-3.6,4.2-10,4.6-14.1,0.9c-4.2-3.6-4.6-10-0.9-14.1c11.6-13.2,28.3-20.8,45.8-20.8c17.6,0,34.3,7.6,45.8,20.8
		c7.8,8.9,19,14,30.8,14c11.8,0,23-5.1,30.8-14c11.6-13.2,28.3-20.8,45.8-20.8c17.6,0,34.3,7.6,45.8,20.8c7.8,8.9,19,14,30.8,14
		c11.8,0,23-5.1,30.8-14c11.6-13.2,28.3-20.8,45.8-20.8c17.6,0,34.3,7.6,45.8,20.8c3.6,4.2,3.2,10.5-0.9,14.1
		c-4.2,3.6-10.5,3.2-14.1-0.9c-7.8-8.9-19-14-30.8-14c-11.8,0-23,5.1-30.8,14C336.2,755.3,319.5,762.9,302,762.9z"/>
	
		<rect x="605.3" y="532.3" transform="matrix(0.8268 -0.5624 0.5624 0.8268 -243.6134 525.317)" class="st1" width="252.1" height="252.1"/>
	
		<rect x="1280.6" y="411.4" transform="matrix(0.8881 0.4596 -0.4596 0.8881 353.2498 -555.2328)" class="st3" width="73.4" height="73.4"/>
	<path class="st1" d="M101.2,61.1l227-131.8c3.9-2.3,6.4-6.4,6.7-10.9c0.3-4.5-1.7-8.9-5.3-11.6L155.4-226c-3.7-2.8-8.6-3.6-13-1.9
		c-4.4,1.7-7.6,5.4-8.5,10L81.1,46.7c-1,5.2,1.1,10.6,5.4,13.7c2.4,1.7,5.1,2.5,7.9,2.5C96.7,62.9,99.1,62.3,101.2,61.1z
		 M296.9-83.9L113.6,22.5l42.7-213.8L296.9-83.9z"/>
	<path class="st8" d="M261.9,191l43-43c1.7-1.7,2.6-3.9,2.6-6.3c0-2.4-0.9-4.6-2.6-6.3c-3.5-3.5-9.2-3.5-12.6,0l-43,43l-43-43
		c-3.5-3.5-9.2-3.5-12.6,0c-1.7,1.7-2.6,3.9-2.6,6.3c0,2.4,0.9,4.6,2.6,6.3l43,43l-43,43c-1.7,1.7-2.6,3.9-2.6,6.3s0.9,4.6,2.6,6.3
		c1.7,1.7,3.9,2.6,6.3,2.6c2.4,0,4.6-0.9,6.3-2.6l43-43l43,43c1.7,1.7,3.9,2.6,6.3,2.6c2.4,0,4.6-0.9,6.3-2.6
		c1.7-1.7,2.6-3.9,2.6-6.3s-0.9-4.6-2.6-6.3L261.9,191z"/>
	
		<rect x="156.6" y="411.4" transform="matrix(0.8881 0.4596 -0.4596 0.8881 227.5296 -38.6929)" class="st3" width="73.4" height="73.4"/>
	<polygon class="st3" points="847.2,540.7 894.2,603.1 812.8,609.7 	"/>
</g>
</svg>
