<?xml version="1.0" encoding="utf-8"?>
<!-- Generator: Adobe Illustrator 21.0.2, SVG Export Plug-In . SVG Version: 6.00 Build 0)  -->
<svg version="1.1" id="Layer_1" xmlns="http://www.w3.org/2000/svg" xmlns:xlink="http://www.w3.org/1999/xlink" x="0px" y="0px"
	 viewBox="0 0 61.9 61.6" style="enable-background:new 0 0 61.9 61.6;" xml:space="preserve">
<g>
	<path d="M31.1,3.6c0.1,0,0.2,0,0.3,0c-0.4-1.4-1.6-4-6-3.6c-1,0.1-1.8,0.3-2.5,0.7c-0.1,0.1-0.1,0.2-0.2,0.4
		c-0.1,0.5-0.1,0.9,0.2,1.4C23.2,2.8,23.7,3,24.2,3L31.1,3.6z"/>
	<path d="M59.3,61.6c0.3,0,0.6,0,0.9,0c0,0,0,0,0,0H60C60,61.6,59.5,61.6,59.3,61.6z"/>
	<path d="M58.1,61.6h1.1c0,0,0,0,0.1,0C58.9,61.6,58.5,61.6,58.1,61.6C58.1,61.6,58.1,61.6,58.1,61.6z"/>
	<path d="M61.8,59.4c-0.1-0.1-0.1-0.3-0.2-0.4c-0.2-0.3-0.6-0.5-1-0.5h-0.7h-0.9c-0.7,0-1.5-0.2-2-0.7c-0.7-0.6-1.5-2.1-2-3
		c-0.4-0.8-0.9-1.7-1.3-2.5c-1.6-2.8-5.1-8.8-6.3-10.7c-1.1-1.7-2.2-3.4-3.4-5c-1.1-1.5-2.2-3-3.4-4.4l0-0.1c-0.4-0.5-0.7-1-0.8-1.3
		c-0.1-0.6,0.3-1.3,0.9-1.5c0,0,0,0,0,0c0,0,0,0,0,0c0.2,0,4.4-0.9,5.7-1.4c3.4-1.4,5-3.8,5.7-5.2c1.2-2.5,1.3-3.7,1.4-4.8
		c0-0.3,0-0.7,0.1-1c0.2-0.9-0.3-1.8-1.2-2.2c-0.3-0.1-0.6-0.2-0.9-0.2c-0.1,0-0.2,0-0.3,0c-1.5-0.2-4.5-1-5.8-1.7
		c-0.9-0.5-3-2.3-4.8-3.9c-1.6-1.4-3.2-2.8-3.9-3.2C36,5.3,35.4,5,34.8,4.9c4,2.3,6.6,6.6,6.6,11.3l0,0.5l-0.1,1.1
		c-0.1,2.4-0.7,4.8-1.8,6.9c-0.7,1.4-1.6,2.6-2.7,3.8c-1.2,1.3-2.8,2.1-4.5,2.6l-7.7,2c-0.4,0.1-0.8,0.4-0.9,0.8l0,0l0,0
		c0,0.1-0.1,0.1-0.1,0.2c0,0,0,0.1,0,0.1c0,0.4,0.1,0.7,0.4,0.9c0.2,0.2,0.4,0.3,0.6,0.3l3.1,0.7c0.1,0,0.3,0.1,0.4,0.1
		c0.1,0,0.2,0.1,0.2,0.1l0,0h0v0l0,0c2.4,0.8,4.5,2.2,6.1,4.2l13.7,16.8c0,0,3.1,3.8,9.8,4.2c0.4,0,0.8,0,1.2,0c0.2,0,0.7,0,0.7,0
		h0.2l0.3,0c0.4,0,0.8-0.2,1.1-0.5C62,60.6,62,60,61.8,59.4z"/>
	<polygon points="28.5,36.5 28.5,36.5 28.5,36.5 	"/>
	<path d="M17.2,4.9c-0.1,0-0.1,0-0.2,0h-0.2H8.3H7.7H7C6.6,4.9,6.2,5,6,5.3C5.5,6,5.5,6.8,6,7.5c0.2,0.3,0.6,0.5,1,0.5h0.6
		c0,0,0.8,0,0.8,0c0,0,0.6,0,0.7,0c0.1,0,0.1,0,0.1,0v35.3v0.1l0,0.1l-0.2,3.1l-0.1,1c-0.2,2.4-0.7,4.6-1.4,6.7
		c-0.2,0.4-0.3,0.8-0.5,1.2c-0.5,0.9-1.1,1.9-1.8,2.6c-0.6,0.5-1.3,0.7-2.1,0.7H2.1H1.4c-0.4,0-0.8,0.2-1,0.5
		c-0.5,0.6-0.5,1.5,0,2.1c0.2,0.3,0.6,0.5,1,0.5h0.6c0,0,0,0,0,0c0,0,0,0,0,0l0,0c0.1,0,0.7,0,0.7,0h1.1c3.1-0.2,5.4-1.1,7-2
		c0.7-0.4,1.3-0.8,1.9-1.3c0.6-0.5,0.9-0.9,0.9-0.9l0,0c1.7-1.9,2.8-4.6,3.2-8l0,0l0,0l0.3-2.2c0.4-2.4,0.6-4.9,0.6-7.3V5.5
		C17.7,5.2,17.4,5,17.2,4.9z"/>
</g>
</svg>
